<?xml version="1.0" encoding="UTF-8"?>
<svg id="Ebene_2" xmlns="http://www.w3.org/2000/svg" viewBox="0 0 575.7 157.94">
  <defs>
    <style>
      .cls-1 {
        fill: #1d1d1b;
      }
    </style>
  </defs>
  <g id="Ebene_1-2" data-name="Ebene_1">
    <g>
      <g>
        <path class="cls-1" d="M0,70.45L40.15,21.2H1.87V0h67.58v18.08l-37.66,49.25h38.4v21.2H0v-18.08Z"/>
        <path class="cls-1" d="M229.68,45.01v43.52h-24.31V0h18.95l35.54,45.01V0h24.32v88.53h-19.33l-35.16-43.52Z"/>
        <g>
          <rect class="cls-1" x="81.48" width="112.82" height="21.2"/>
          <rect class="cls-1" x="81.48" y="67.33" width="112.82" height="21.2"/>
          <rect class="cls-1" x="81.48" y="33.67" width="112.82" height="21.2"/>
        </g>
      </g>
      <g>
        <path class="cls-1" d="M328.43,0h22.32l8.1,27.31,8.23-27.31h22.32l-14.96,42.27,6.36,18.08L399.88,0h26.43l-33.42,88.53h-21.07l-12.97-31.67-12.84,31.67h-21.07L291.52,0h26.31l19.2,60.35,6.11-18.08L328.43,0Z"/>
        <path class="cls-1" d="M445.52,0h27.18l28.18,88.53h-24.69l-4.58-17.33h-25.01l-4.58,17.33h-24.81L445.52,0ZM467.34,54.99l-8.23-31.17-8.23,31.17h16.46Z"/>
        <path class="cls-1" d="M517.22,0l15.84,36.16L549.26,0h26.44l-30.55,59.23v29.3h-24.19v-29.55L490.91,0h26.31Z"/>
      </g>
      <g>
        <path class="cls-1" d="M13.11,147.21c-1.88,0-3.62-.36-5.22-1.08-1.61-.72-3-1.7-4.17-2.95-1.17-1.25-2.08-2.69-2.74-4.33-.65-1.64-.98-3.39-.98-5.26,0-2.43.56-4.65,1.68-6.68,1.12-2.03,2.67-3.65,4.65-4.86,1.98-1.21,4.22-1.82,6.73-1.82s4.83.62,6.76,1.85c1.92,1.23,3.44,2.85,4.54,4.86,1.11,2.01,1.66,4.21,1.66,6.61v.77c0,.25-.02.44-.05.57H3.57c.17,1.87.69,3.52,1.58,4.97.89,1.45,2.04,2.6,3.47,3.45,1.42.85,2.97,1.27,4.65,1.27s3.32-.44,4.85-1.31c1.52-.87,2.59-2.01,3.19-3.41l2.96.8c-.54,1.24-1.36,2.36-2.46,3.37-1.1,1-2.4,1.78-3.89,2.33s-3.09.83-4.8.83ZM3.47,132.45h19.34c-.13-1.89-.65-3.55-1.53-4.97-.89-1.42-2.04-2.54-3.47-3.35-1.42-.81-2.99-1.22-4.7-1.22s-3.26.41-4.67,1.22c-1.41.81-2.55,1.94-3.44,3.38-.89,1.44-1.4,3.09-1.53,4.95Z"/>
        <path class="cls-1" d="M29.18,139.23c0-1.63.47-3.04,1.41-4.22s2.24-2.1,3.89-2.74c1.66-.65,3.57-.97,5.75-.97,1.27,0,2.59.1,3.97.3,1.37.2,2.59.5,3.67.9v-2.2c0-2.2-.65-3.94-1.96-5.24-1.31-1.3-3.11-1.95-5.42-1.95-1.41,0-2.79.26-4.14.78-1.36.52-2.77,1.28-4.24,2.28l-1.31-2.41c1.71-1.17,3.38-2.05,5.02-2.64,1.64-.58,3.31-.88,5.02-.88,3.21,0,5.76.91,7.63,2.74,1.87,1.83,2.81,4.36,2.81,7.59v12.03c0,.47.1.81.3,1.02.2.22.52.34.95.37v2.71c-.37.03-.69.07-.95.1-.27.03-.47.03-.6,0-.84-.03-1.47-.3-1.91-.8-.44-.5-.67-1.04-.7-1.61l-.05-1.91c-1.17,1.51-2.7,2.67-4.57,3.49-1.88.82-3.78,1.23-5.73,1.23-1.67,0-3.19-.36-4.54-1.07-1.36-.72-2.41-1.68-3.16-2.89s-1.13-2.55-1.13-4.02ZM46.71,141.22c.37-.46.65-.91.85-1.34.2-.43.3-.81.3-1.15v-3.78c-1.14-.43-2.32-.76-3.54-.99-1.22-.23-2.45-.35-3.69-.35-2.44,0-4.42.48-5.93,1.44s-2.26,2.27-2.26,3.93c0,.96.25,1.87.75,2.71.5.85,1.24,1.54,2.21,2.09.97.55,2.11.82,3.42.82,1.64,0,3.17-.32,4.6-.95,1.42-.63,2.52-1.44,3.29-2.44Z"/>
        <path class="cls-1" d="M67.25,147.21c-2.14,0-4.14-.35-5.98-1.05-1.84-.7-3.43-1.78-4.77-3.21l1.41-2.41c1.47,1.37,2.95,2.37,4.44,2.99,1.49.62,3.07.93,4.75.93,2.04,0,3.7-.41,4.97-1.22,1.27-.81,1.91-1.98,1.91-3.51,0-1.03-.31-1.82-.93-2.37-.62-.55-1.51-1-2.66-1.35s-2.54-.72-4.14-1.12c-1.81-.5-3.32-1.02-4.54-1.57-1.22-.55-2.14-1.25-2.76-2.1-.62-.85-.93-1.96-.93-3.32,0-1.7.43-3.11,1.28-4.22s2.02-1.96,3.52-2.55c1.49-.58,3.16-.87,5-.87,2.01,0,3.78.32,5.32.95,1.54.64,2.79,1.52,3.77,2.66l-1.66,2.31c-.94-1.07-2.05-1.87-3.34-2.38-1.29-.52-2.72-.78-4.29-.78-1.07,0-2.09.14-3.06.43-.97.28-1.77.75-2.39,1.4-.62.65-.93,1.54-.93,2.67,0,.93.23,1.66.7,2.17.47.52,1.17.95,2.11,1.3.94.35,2.09.72,3.47,1.12,1.98.53,3.7,1.07,5.17,1.62,1.47.55,2.61,1.26,3.42,2.12s1.21,2.08,1.21,3.64c0,2.43-.92,4.33-2.76,5.69-1.84,1.36-4.27,2.05-7.28,2.05Z"/>
        <path class="cls-1" d="M83.87,154.75c.47.03.92.06,1.36.08.43.02.75,0,.95-.08.4-.07.79-.3,1.15-.7.37-.4.8-1.17,1.31-2.3.5-1.13,1.21-2.8,2.11-5l-11.4-26.1h3.62l9.59,22.59,8.84-22.59h3.42l-13.56,33.66c-.23.63-.59,1.23-1.05,1.78-.47.55-1.05.98-1.73,1.3-.69.32-1.53.49-2.54.53-.3.03-.61.04-.93.02-.32-.02-.7-.06-1.13-.13v-3.06Z"/>
        <path class="cls-1" d="M120.78,135.96v-15.31h3.41v14.7c0,2.97.51,5.19,1.53,6.65,1.02,1.47,2.54,2.2,4.54,2.2,1.34,0,2.64-.29,3.89-.87,1.26-.58,2.37-1.41,3.34-2.5.97-1.08,1.71-2.34,2.21-3.77v-16.41h3.42v21.95c0,.47.1.81.3,1.02.2.22.5.34.9.38v2.71c-.4.03-.72.06-.95.07-.23.02-.45.03-.65.03-.67-.07-1.25-.33-1.73-.8-.49-.47-.75-1.03-.78-1.7l-.1-3.5c-1.14,2-2.69,3.57-4.65,4.7-1.96,1.13-4.08,1.7-6.35,1.7-2.75,0-4.82-.95-6.23-2.85-1.41-1.9-2.11-4.7-2.11-8.41Z"/>
        <path class="cls-1" d="M172.86,146.71h-3.42v-14.52c0-3.06-.45-5.3-1.36-6.71-.9-1.41-2.33-2.12-4.27-2.12-1.34,0-2.66.32-3.97.97-1.31.65-2.45,1.53-3.44,2.64-.99,1.11-1.7,2.38-2.13,3.81v15.93h-3.41v-26.07h3.11v5.94c.7-1.27,1.62-2.37,2.76-3.32,1.14-.95,2.43-1.69,3.87-2.22,1.44-.53,2.93-.8,4.47-.8,1.44,0,2.66.27,3.67.8s1.81,1.29,2.41,2.27,1.04,2.16,1.31,3.55c.27,1.38.4,2.92.4,4.62v15.23Z"/>
        <path class="cls-1" d="M190.64,147.21c-1.78,0-3.42-.37-4.92-1.1-1.51-.74-2.8-1.73-3.89-2.99-1.09-1.26-1.93-2.69-2.54-4.29-.6-1.61-.9-3.26-.9-4.97,0-1.84.29-3.57.88-5.2s1.42-3.07,2.51-4.34c1.09-1.27,2.37-2.27,3.84-2.99,1.47-.72,3.11-1.08,4.92-1.08,2.24,0,4.19.56,5.85,1.68s3.06,2.52,4.19,4.19v-5.47h3.06v26.2c0,2.4-.58,4.43-1.73,6.09-1.15,1.65-2.71,2.9-4.67,3.73-1.96.83-4.09,1.25-6.4,1.25-2.98,0-5.39-.54-7.23-1.61-1.84-1.07-3.35-2.51-4.52-4.32l2.11-1.66c1.04,1.64,2.42,2.86,4.14,3.67,1.72.8,3.56,1.21,5.5,1.21,1.71,0,3.27-.3,4.7-.91,1.42-.61,2.56-1.52,3.42-2.74.85-1.22,1.28-2.75,1.28-4.59v-5.17c-1,1.64-2.38,2.95-4.12,3.94-1.74.99-3.57,1.48-5.47,1.48ZM191.6,144.35c1.04,0,2.03-.18,2.99-.55.95-.37,1.83-.86,2.64-1.48s1.47-1.31,2.01-2.08c.54-.77.87-1.56,1-2.36v-8.09c-.5-1.27-1.22-2.4-2.16-3.39-.94-.99-2-1.76-3.19-2.31-1.19-.55-2.42-.83-3.69-.83-1.47,0-2.79.31-3.94.93-1.16.62-2.13,1.44-2.91,2.46-.79,1.02-1.4,2.17-1.83,3.44-.44,1.27-.65,2.55-.65,3.82,0,1.41.25,2.74.75,3.99s1.2,2.38,2.08,3.37c.89.99,1.93,1.75,3.11,2.28,1.19.54,2.45.8,3.79.8Z"/>
        <path class="cls-1" d="M222.48,147.21c-1.88,0-3.62-.36-5.22-1.08-1.61-.72-3-1.7-4.17-2.95-1.17-1.25-2.08-2.69-2.74-4.33-.65-1.64-.98-3.39-.98-5.26,0-2.43.56-4.65,1.68-6.68,1.12-2.03,2.67-3.65,4.65-4.86,1.98-1.21,4.22-1.82,6.73-1.82s4.83.62,6.76,1.85c1.92,1.23,3.44,2.85,4.54,4.86,1.11,2.01,1.66,4.21,1.66,6.61v.77c0,.25-.02.44-.05.57h-22.4c.17,1.87.69,3.52,1.58,4.97.89,1.45,2.04,2.6,3.47,3.45,1.42.85,2.97,1.27,4.65,1.27s3.32-.44,4.85-1.31c1.52-.87,2.59-2.01,3.19-3.41l2.96.8c-.54,1.24-1.36,2.36-2.46,3.37-1.1,1-2.4,1.78-3.89,2.33s-3.09.83-4.8.83ZM212.84,132.45h19.34c-.13-1.89-.65-3.55-1.53-4.97-.89-1.42-2.04-2.54-3.47-3.35-1.42-.81-2.99-1.22-4.7-1.22s-3.26.41-4.67,1.22c-1.41.81-2.55,1.94-3.44,3.38-.89,1.44-1.4,3.09-1.53,4.95Z"/>
        <path class="cls-1" d="M253.72,123.56c-2.28.07-4.28.7-6,1.91-1.72,1.21-2.94,2.86-3.64,4.97v16.27h-3.41v-26.07h3.21v6.18c.9-1.84,2.1-3.33,3.59-4.47,1.49-1.14,3.07-1.77,4.75-1.91.33-.03.63-.05.88-.05s.46.02.63.05v3.11Z"/>
        <path class="cls-1" d="M291.24,120.64h3.36l-11.25,26.07h-2.96l-5.47-12.96-5.42,12.96h-2.96l-11.25-26.07h3.31l9.54,22.56,4.82-11.76-4.42-10.76h3.06l3.32,8.45,3.36-8.45h3.01l-4.37,10.76,4.82,11.76,9.49-22.56Z"/>
        <path class="cls-1" d="M296.36,139.23c0-1.63.47-3.04,1.41-4.22s2.24-2.1,3.89-2.74c1.66-.65,3.57-.97,5.75-.97,1.27,0,2.59.1,3.97.3,1.37.2,2.59.5,3.67.9v-2.2c0-2.2-.65-3.94-1.96-5.24-1.31-1.3-3.11-1.95-5.42-1.95-1.41,0-2.79.26-4.14.78-1.36.52-2.77,1.28-4.24,2.28l-1.31-2.41c1.71-1.17,3.38-2.05,5.02-2.64,1.64-.58,3.31-.88,5.02-.88,3.21,0,5.76.91,7.63,2.74,1.87,1.83,2.81,4.36,2.81,7.59v12.03c0,.47.1.81.3,1.02.2.22.52.34.95.37v2.71c-.37.03-.69.07-.95.1-.27.03-.47.03-.6,0-.84-.03-1.47-.3-1.91-.8-.44-.5-.67-1.04-.7-1.61l-.05-1.91c-1.17,1.51-2.7,2.67-4.57,3.49-1.88.82-3.78,1.23-5.73,1.23-1.67,0-3.19-.36-4.54-1.07-1.36-.72-2.41-1.68-3.16-2.89s-1.13-2.55-1.13-4.02ZM313.89,141.22c.37-.46.65-.91.85-1.34.2-.43.3-.81.3-1.15v-3.78c-1.14-.43-2.32-.76-3.54-.99-1.22-.23-2.45-.35-3.69-.35-2.44,0-4.42.48-5.93,1.44-1.51.96-2.26,2.27-2.26,3.93,0,.96.25,1.87.75,2.71.5.85,1.24,1.54,2.21,2.09.97.55,2.11.82,3.42.82,1.64,0,3.17-.32,4.6-.95,1.42-.63,2.52-1.44,3.29-2.44ZM302.74,114.87v-4.72h2.91v4.72h-2.91ZM310.22,114.87v-4.72h2.91v4.72h-2.91Z"/>
        <path class="cls-1" d="M336.34,147.21c-1.78,0-3.42-.37-4.92-1.1-1.51-.74-2.8-1.73-3.89-2.99-1.09-1.26-1.93-2.69-2.54-4.29-.6-1.61-.9-3.26-.9-4.97,0-1.84.29-3.57.88-5.2s1.42-3.07,2.51-4.34c1.09-1.27,2.37-2.27,3.84-2.99,1.47-.72,3.11-1.08,4.92-1.08,2.24,0,4.19.56,5.85,1.68s3.06,2.52,4.19,4.19v-5.47h3.06v26.2c0,2.4-.58,4.43-1.73,6.09-1.15,1.65-2.71,2.9-4.67,3.73-1.96.83-4.09,1.25-6.4,1.25-2.98,0-5.39-.54-7.23-1.61-1.84-1.07-3.35-2.51-4.52-4.32l2.11-1.66c1.04,1.64,2.42,2.86,4.14,3.67,1.72.8,3.56,1.21,5.5,1.21,1.71,0,3.27-.3,4.7-.91,1.42-.61,2.56-1.52,3.42-2.74.85-1.22,1.28-2.75,1.28-4.59v-5.17c-1,1.64-2.38,2.95-4.12,3.94-1.74.99-3.57,1.48-5.47,1.48ZM337.29,144.35c1.04,0,2.03-.18,2.99-.55.95-.37,1.83-.86,2.64-1.48s1.47-1.31,2.01-2.08c.54-.77.87-1.56,1-2.36v-8.09c-.5-1.27-1.22-2.4-2.16-3.39-.94-.99-2-1.76-3.19-2.31-1.19-.55-2.42-.83-3.69-.83-1.47,0-2.79.31-3.94.93-1.16.62-2.13,1.44-2.91,2.46-.79,1.02-1.4,2.17-1.83,3.44-.44,1.27-.65,2.55-.65,3.82,0,1.41.25,2.74.75,3.99s1.2,2.38,2.08,3.37c.89.99,1.93,1.75,3.11,2.28,1.19.54,2.45.8,3.79.8Z"/>
        <path class="cls-1" d="M365.47,147.21c-2.14,0-4.14-.35-5.98-1.05-1.84-.7-3.43-1.78-4.77-3.21l1.41-2.41c1.47,1.37,2.95,2.37,4.44,2.99,1.49.62,3.07.93,4.75.93,2.04,0,3.7-.41,4.97-1.22,1.27-.81,1.91-1.98,1.91-3.51,0-1.03-.31-1.82-.93-2.37-.62-.55-1.51-1-2.66-1.35s-2.54-.72-4.14-1.12c-1.81-.5-3.32-1.02-4.54-1.57-1.22-.55-2.14-1.25-2.76-2.1-.62-.85-.93-1.96-.93-3.32,0-1.7.43-3.11,1.28-4.22s2.02-1.96,3.52-2.55c1.49-.58,3.16-.87,5-.87,2.01,0,3.78.32,5.32.95,1.54.64,2.79,1.52,3.77,2.66l-1.66,2.31c-.94-1.07-2.05-1.87-3.34-2.38-1.29-.52-2.72-.78-4.29-.78-1.07,0-2.09.14-3.06.43-.97.28-1.77.75-2.39,1.4-.62.65-.93,1.54-.93,2.67,0,.93.23,1.66.7,2.17.47.52,1.17.95,2.11,1.3.94.35,2.09.72,3.47,1.12,1.98.53,3.7,1.07,5.17,1.62,1.47.55,2.61,1.26,3.42,2.12s1.21,2.08,1.21,3.64c0,2.43-.92,4.33-2.76,5.69-1.84,1.36-4.27,2.05-7.28,2.05Z"/>
      </g>
    </g>
  </g>
</svg>